PathFileType	4	(X/Y/Z)	C:/Users/dbak576/Desktop/Duncan Bakke Modelling Files/H29s1/Static_H29s1.trc	
DataRate	CameraRate	NumFrames	NumMarkers	Units	OrigDataRate	OrigDataStartFrame	OrigNumFrames	
200.00	200.00	5	66	mm	200.00	276	734	
Frame#	Time	LFHD			RFHD			LBHD			RBHD			C7			T10			CLAV			STRN			RBack			LASI			RASI			LPSI			RACR1			RUA1			RElbow			RElbowM			RFA1			RWRR			RWRU			RCAR			LACR1			LUA1			LElbow			LElbowM			LFA1			LWRR			LWRU			LCAR			RTH1			RTH3			RTH2			RLFC			RMFC			RTB1			RTB3			RTB2			RTB4			RLMAL			RCAL			RMT1			RMT5			RToe			LTH1			LTH3			LTH2			LTH4			LLFC			LMFC			LTB1			LTB3			LTB2			LTB4			LLMAL			LCAL			LMT1			LMT5			LToe			RPSI			RMMAL			LMMAL			RTH4			*61			*62			*63			*64			*65			
		X1	Y1	Z1	X2	Y2	Z2	X3	Y3	Z3	X4	Y4	Z4	X5	Y5	Z5	X6	Y6	Z6	X7	Y7	Z7	X8	Y8	Z8	X9	Y9	Z9	X10	Y10	Z10	X11	Y11	Z11	X12	Y12	Z12	X13	Y13	Z13	X14	Y14	Z14	X15	Y15	Z15	X16	Y16	Z16	X17	Y17	Z17	X18	Y18	Z18	X19	Y19	Z19	X20	Y20	Z20	X21	Y21	Z21	X22	Y22	Z22	X23	Y23	Z23	X24	Y24	Z24	X25	Y25	Z25	X26	Y26	Z26	X27	Y27	Z27	X28	Y28	Z28	X29	Y29	Z29	X30	Y30	Z30	X31	Y31	Z31	X32	Y32	Z32	X33	Y33	Z33	X34	Y34	Z34	X35	Y35	Z35	X36	Y36	Z36	X37	Y37	Z37	X38	Y38	Z38	X39	Y39	Z39	X40	Y40	Z40	X41	Y41	Z41	X42	Y42	Z42	X43	Y43	Z43	X44	Y44	Z44	X45	Y45	Z45	X46	Y46	Z46	X47	Y47	Z47	X48	Y48	Z48	X49	Y49	Z49	X50	Y50	Z50	X51	Y51	Z51	X52	Y52	Z52	X53	Y53	Z53	X54	Y54	Z54	X55	Y55	Z55	X56	Y56	Z56	X57	Y57	Z57	X58	Y58	Z58	X59	Y59	Z59	X60	Y60	Z60	X61	Y61	Z61	X62	Y62	Z62	X63	Y63	Z63	X64	Y64	Z64	X65	Y65	Z65	X66	Y66	Z66	

276	1.375	-38.87986	-386.05411	1691.40588	60.35651	-386.41263	1694.72913	-46.79708	-528.69373	1596.53662				21.03433	-554.92767	1485.29224	16.17491	-555.74066	1165.10217	21.21397	-351.33298	1450.51660	19.76934	-254.63472	1305.54077	136.07947	-587.27954	1356.17139	-165.27840	-318.40424	1017.88977	203.48647	-317.01688	1016.77405	-31.87601	-570.51245	1040.46472	165.67430	-498.43124	1523.03528	332.70294	-461.48465	1469.00427	462.76657	-391.52515	1454.31970	445.11365	-289.75021	1379.04199	589.02338	-304.86990	1460.38586	646.63275	-192.72624	1508.89050	668.13287	-210.09949	1437.79248	739.09381	-186.64203	1479.44763	-126.68793	-498.28009	1520.86694	-282.90820	-478.41370	1455.22559	-437.26224	-431.69669	1431.02979	-430.20035	-341.71637	1346.56421	-555.69019	-362.94754	1439.19250	-643.45795	-269.04428	1497.99695	-663.06958	-255.67155	1433.66541	-733.00690	-247.97920	1475.90747	238.02905	-411.44357	796.73724	225.06480	-387.70062	626.61310	222.73917	-341.26984	720.28082	221.05083	-399.17529	509.73300	65.83115	-389.56818	501.85458	160.49988	-340.54108	381.44925	157.56563	-376.02100	211.99252	216.32713	-381.15762	301.75711	159.32233	-358.05011	296.65848	191.38029	-469.04861	79.57716	143.69197	-528.00909	48.84254	151.95781	-306.84222	27.40100	252.78963	-365.99313	34.17001	189.85625	-259.49582	29.93853	-201.54031	-376.73785	790.87408	-193.43407	-367.96756	619.42676	-180.59090	-315.48685	708.97498	-196.81192	-373.58261	705.53894	-199.55072	-385.38080	533.85376	-46.11715	-366.06845	505.16296	-151.34900	-324.06171	399.29077	-146.17848	-360.32367	230.49501	-202.46727	-366.93805	318.11993	-147.30965	-338.64249	315.47662	-176.99219	-461.58789	81.03586	-131.80110	-517.37622	46.10999	-137.76711	-302.69696	40.10050	-227.71973	-348.46255	24.22574	-166.20615	-243.93068	26.79288	45.32704	-581.25134	1032.25574	107.38428	-431.07779	77.65740	-91.99405	-443.85779	78.67226	235.87598	-398.90988	712.77405				98.85870	-513.81854	1610.09546									 
277	1.380	-38.94537	-386.04599	1691.46313	60.40233	-386.37360	1694.74683	-46.72221	-528.64850	1596.52869				21.04713	-554.91205	1485.29272	16.20005	-555.71783	1165.13403	21.23645	-351.25110	1450.49927	19.72427	-254.63582	1305.54004	136.10283	-587.27026	1356.16687	-165.28271	-318.41159	1017.87469	203.25111	-316.98837	1016.47650	-31.58700	-570.20721	1040.40198	165.68430	-498.43747	1523.02698	332.66748	-461.38657	1469.06824	462.75662	-391.51382	1454.37500	445.07166	-289.67667	1379.07605	588.88080	-304.74564	1460.31799	646.62006	-192.70198	1508.89502	667.81421	-210.26631	1438.00024	739.02069	-186.97189	1479.49146	-126.70561	-498.27203	1520.90198	-282.92719	-478.43509	1455.20288	-437.28668	-431.71768	1430.99207	-430.25061	-341.98279	1346.56580	-555.66736	-362.92816	1439.14990	-643.44421	-269.07831	1498.02869	-663.81421	-256.13943	1434.26062	-733.10101	-248.11685	1475.97205	237.96202	-411.45285	796.72131	225.30704	-387.77612	626.61230	222.74997	-341.20541	720.33643	221.08089	-399.10864	509.67349	65.86187	-389.52652	501.84747	160.48569	-340.52951	381.45230	157.57593	-376.02170	211.99231	216.31631	-381.14795	301.75980	159.32552	-358.06088	296.66095	191.39894	-469.02878	79.59137	143.69159	-528.03833	48.93256	151.96463	-306.84375	27.40253	252.47546	-366.10806	33.89632	189.89796	-259.54282	29.84261	-201.52414	-376.77454	790.89044	-193.44585	-367.98087	619.40997	-180.59917	-315.48883	708.95410	-196.78590	-373.60724	705.58026	-199.54057	-385.39429	533.85016	-46.10947	-366.05960	505.17087	-151.31285	-324.08179	399.32202	-146.17842	-360.32578	230.50127	-202.45485	-366.94946	318.11798	-147.27599	-338.64526	315.50119	-176.96703	-461.56589	81.06116	-131.73029	-517.37189	45.94273	-137.76732	-302.82300	39.92534	-227.60202	-348.30215	24.19939	-166.16939	-243.94577	26.88125	45.44038	-581.24817	1032.17944	107.39414	-431.05835	77.72033	-91.97761	-443.91595	78.56226	236.42848	-398.77423	712.84125				98.85564	-513.81696	1610.10120									 
278	1.385	-38.93047	-386.09595	1691.52881	60.41703	-386.35165	1694.76978	-46.66357	-528.61847	1596.55115				21.05074	-554.91003	1485.30859	16.24078	-555.69135	1165.14514	21.26431	-351.17633	1450.48840	19.68200	-254.63889	1305.52234	136.12407	-587.26007	1356.17859	-165.27165	-318.42981	1017.85834	203.08266	-317.01651	1016.32977	-31.33809	-569.98529	1040.36426	165.72476	-498.44949	1523.02307	332.62210	-461.29614	1469.13269	462.76239	-391.51770	1454.45410	445.02002	-289.59842	1379.11121	588.73767	-304.61356	1460.33655	646.61169	-192.67471	1508.91040	667.60095	-210.65477	1438.13220	739.03839	-187.20502	1479.52405	-126.71798	-498.26526	1520.94763	-282.94272	-478.45758	1455.16455	-437.28821	-431.70840	1430.94385	-430.30911	-342.02090	1346.59045	-555.65649	-362.91589	1439.10376	-643.43420	-269.08752	1498.06262	-664.33496	-256.75269	1434.89563	-733.17462	-248.22571	1476.04333	237.90167	-411.46939	796.70337	225.50430	-387.89188	626.63568	222.75217	-341.16022	720.37860	221.13382	-399.02707	509.60510	65.88619	-389.47516	501.84198	160.47021	-340.52185	381.45978	157.57443	-376.01581	211.98991	216.30702	-381.13687	301.76508	159.33884	-358.05600	296.65146	191.43623	-469.01715	79.61736	143.68105	-528.07245	49.02456	151.97339	-306.84607	27.40251	251.82176	-366.27304	33.44439	189.91911	-259.60913	29.74654	-201.50603	-376.82156	790.90814	-193.46573	-367.98770	619.40198	-180.59834	-315.48926	708.94324	-196.75116	-373.64581	705.64709	-199.48996	-385.41824	533.88135	-46.09734	-366.04355	505.16440	-151.27122	-324.10379	399.34256	-146.16812	-360.35822	230.51355	-202.44176	-366.96494	318.11218	-147.24615	-338.64905	315.51843	-176.97163	-461.53741	81.05087	-131.64908	-517.30597	45.79467	-137.74959	-302.86813	39.96555	-227.53934	-348.15393	24.18405	-166.15547	-243.83638	26.91915	45.46268	-581.28595	1032.14478	107.40067	-431.03793	77.77590	-91.96966	-443.96939	78.47124	236.80183	-398.81546	712.96674				98.83720	-513.84955	1610.16699									 
279	1.390	-38.90113	-386.08273	1691.54102	60.41946	-386.34250	1694.77698	-46.63515	-528.59540	1596.59216				21.06540	-554.87817	1485.31116	16.29497	-555.66113	1165.12964	21.29362	-351.12689	1450.48914	19.65811	-254.64709	1305.50635	136.14700	-587.25391	1356.18054	-165.24733	-318.44260	1017.83722	203.02505	-317.07480	1016.36157	-31.14381	-569.82324	1040.33972	165.77216	-498.45663	1523.03174	332.60025	-461.27017	1469.11658	462.74814	-391.50168	1454.50171	444.95728	-289.51874	1379.15442	588.58923	-304.45563	1460.37805	646.61414	-192.64450	1508.92517	667.57080	-211.16147	1438.20691	739.15759	-187.29765	1479.55859	-126.74585	-498.26559	1520.93701	-282.93170	-478.47388	1455.11951	-437.26648	-431.68054	1430.88074	-430.34128	-342.15594	1346.57349	-555.63873	-362.89844	1439.05750	-643.42664	-269.05798	1498.05725	-664.80652	-257.41855	1435.65784	-733.22797	-248.30412	1476.10986	237.86584	-411.47131	796.67578	225.61420	-388.00449	626.70050	222.78671	-341.10358	720.41711	221.18684	-398.96262	509.56931	65.90262	-389.41626	501.83853	160.45216	-340.51273	381.46664	157.57707	-376.01138	211.99132	216.29839	-381.12613	301.77155	159.34621	-358.05161	296.64697	191.46114	-468.99478	79.63126	143.70081	-528.11670	49.10108	151.98607	-306.85193	27.39455	251.39789	-366.37805	33.20786	189.93434	-259.65125	29.67372	-201.50403	-376.86124	790.91565	-193.46530	-367.99316	619.42596	-180.60915	-315.47882	708.93414	-196.73090	-373.68094	705.69244	-199.51385	-385.40186	533.85437	-46.08193	-366.02457	505.15784	-151.23830	-324.12781	399.34967	-146.15852	-360.41385	230.53394	-202.43936	-366.97592	318.10361	-147.22395	-338.65289	315.52783	-176.98450	-461.53296	81.03726	-131.55913	-517.06982	46.05669	-137.72127	-302.84586	40.12174	-227.73969	-348.23645	24.25347	-166.12039	-243.68109	27.02393	45.48112	-581.23596	1032.16382	107.39152	-431.02600	77.77048	-91.97147	-444.01581	78.40389	237.18307	-398.71637	712.99420				98.82664	-513.86603	1610.21814									 
280	1.395	-38.84624	-386.14078	1691.57922	60.41951	-386.34995	1694.77649	-46.64181	-528.57404	1596.61914				21.08968	-554.83246	1485.30273	16.35906	-555.63043	1165.10107	21.32285	-351.10764	1450.50049	19.65210	-254.65747	1305.49292	136.16721	-587.24408	1356.17151	-165.23209	-318.44916	1017.81512	203.11388	-317.16019	1016.57843	-31.02500	-569.77014	1040.32141	165.82285	-498.46008	1523.04016	332.57507	-461.25497	1469.10474	462.72528	-391.46359	1454.49512	444.89117	-289.43286	1379.19470	588.41772	-304.27441	1460.38953	646.63275	-192.62416	1508.92871	667.68793	-211.73199	1438.29468	739.36047	-187.16130	1479.58032	-126.76357	-498.26505	1520.94324	-282.90848	-478.46576	1455.06873	-437.23083	-431.64853	1430.83594	-430.26865	-342.33209	1346.53967	-555.62860	-362.88321	1439.04565	-643.42535	-269.00427	1498.02588	-665.17291	-258.10980	1436.44641	-733.32166	-248.42126	1476.18542	237.91519	-411.49246	796.65149	225.63817	-388.09741	626.77881	222.84175	-341.03821	720.44812	221.25218	-398.89157	509.53491	65.90189	-389.35483	501.83771	160.43698	-340.49243	381.46603	157.57047	-376.00055	211.97939	216.29135	-381.11179	301.76193	159.35994	-358.03329	296.62897	191.49849	-468.98920	79.64074	143.71274	-528.14984	49.14938	151.99297	-306.86014	27.39481	250.79274	-366.47729	32.90763	189.92644	-259.67798	29.65240	-201.50319	-376.88788	790.91766	-193.44391	-368.00290	619.46838	-180.60663	-315.47287	708.93890	-196.71873	-373.71268	705.73102	-199.52208	-385.38412	533.84271	-46.06458	-366.00336	505.14597	-151.21817	-324.15152	399.34421	-146.14847	-360.45352	230.53790	-202.43533	-366.98392	318.09833	-147.21429	-338.65591	315.53207	-176.97653	-461.52127	81.05015	-131.57111	-516.98511	46.15443	-137.70316	-302.78305	40.31520	-227.84676	-348.29739	24.29610	-166.08893	-243.58759	27.07937	45.50819	-581.10999	1032.21411	107.38918	-431.01523	77.76821	-91.98930	-444.05106	78.35935	237.50131	-398.51804	712.94073				98.84096	-513.83362	1610.24670									 
